<svg width="500" height="300" viewbox="0 0 500 300"  xmlns="http://www.w3.org/2000/svg">
    <path fill="blue" d="M 0,0 l 0,175 l 100,-50 l 0,50 l 100,-50 l 0,50 l 100,-50 l 0,50 l 100,-50 l 0,50 l 100,-50 l 0,50 l 0,-175 Z" />
    <path fill="green" d="M 0,175 l 100,-50 l 0,50 l 100,-50 l 0,50 l 100,-50 l 0,50 l 100,-50 l 0,50 l 100,-50 l 0,50 l 0,175 l -500,0 Z" />
    <path fill="yellow" d="M 0,150 l 100,-50 l 0,50 l 100,-50 l 0,50 l 100,-50 l 0,50 l 100,-50 l 0,50 l 100,-50 l 0,50 l -100,50 l 0,-50 l -100,50 l 0,-50 l -100,50 l 0,-50 l -100,50 l 0,-50 l -100,50 l 0,-50 Z" />
</svg>
