<!-- Generated by graphviz version 2.38.0 (20140413.2041)
 -->
<!-- Title: G Pages: 1 -->
<svg width="410pt" height="242pt"
 viewBox="0.00 0.00 410.00 242.00" xmlns="http://www.w3.org/2000/svg" xmlns:xlink="http://www.w3.org/1999/xlink">
<g id="graph0" class="graph" transform="scale(1 1) rotate(0) translate(4 238)">
<title>G</title>
<polygon fill="white" stroke="none" points="-4,4 -4,-238 406,-238 406,4 -4,4"/>
<g id="clust1" class="cluster"><title>clusterA</title>
<polygon fill="none" stroke="#222222" points="8,-8 8,-226 394,-226 394,-8 8,-8"/>
<text text-anchor="middle" x="201" y="-210.8" font-family="Playfair Display" font-size="14.00" fill="#222222">honeycomb.cafe</text>
</g>
<!-- Honeycomb -->
<g id="node1" class="node"><title>Honeycomb</title>
<ellipse fill="none" stroke="#222222" cx="195" cy="-106" rx="57.0907" ry="18"/>
<text text-anchor="middle" x="195" y="-101.8" font-family="Playfair Display" font-size="14.00" fill="#222222">Honeycomb</text>
</g>
<!-- memcached -->
<g id="node2" class="node"><title>memcached</title>
<ellipse fill="none" stroke="#222222" cx="74" cy="-34" rx="58.0513" ry="18"/>
<text text-anchor="middle" x="74" y="-29.8" font-family="Playfair Display" font-size="14.00" fill="#222222">memcached</text>
</g>
<!-- Honeycomb&#45;&#45;memcached -->
<g id="edge1" class="edge"><title>Honeycomb&#45;&#45;memcached</title>
<path fill="none" stroke="#222222" d="M168.745,-89.811C148.449,-78.0697 120.487,-61.8932 100.204,-50.1593"/>
</g>
<!-- Postgres -->
<g id="node3" class="node"><title>Postgres</title>
<ellipse fill="none" stroke="#222222" cx="195" cy="-34" rx="45.0114" ry="18"/>
<text text-anchor="middle" x="195" y="-29.8" font-family="Playfair Display" font-size="14.00" fill="#222222">Postgres</text>
</g>
<!-- Honeycomb&#45;&#45;Postgres -->
<g id="edge2" class="edge"><title>Honeycomb&#45;&#45;Postgres</title>
<path fill="none" stroke="#222222" d="M195,-87.6966C195,-76.8463 195,-62.9167 195,-52.1043"/>
</g>
<!-- ElasticSearch -->
<g id="node4" class="node"><title>ElasticSearch</title>
<ellipse fill="none" stroke="#222222" cx="322" cy="-34" rx="64.3479" ry="18"/>
<text text-anchor="middle" x="322" y="-29.8" font-family="Playfair Display" font-size="14.00" fill="#222222">ElasticSearch</text>
</g>
<!-- Honeycomb&#45;&#45;ElasticSearch -->
<g id="edge3" class="edge"><title>Honeycomb&#45;&#45;ElasticSearch</title>
<path fill="none" stroke="#222222" d="M222.245,-89.9832C243.381,-78.3332 272.577,-62.241 293.922,-50.4762"/>
</g>
<!-- Apache -->
<g id="node5" class="node"><title>Apache</title>
<ellipse fill="none" stroke="#222222" cx="195" cy="-178" rx="40.2009" ry="18"/>
<text text-anchor="middle" x="195" y="-173.8" font-family="Playfair Display" font-size="14.00" fill="#222222">Apache</text>
</g>
<!-- Apache&#45;&#45;Honeycomb -->
<g id="edge4" class="edge"><title>Apache&#45;&#45;Honeycomb</title>
<path fill="none" stroke="#222222" d="M195,-159.697C195,-148.846 195,-134.917 195,-124.104"/>
</g>
</g>
</svg>
