<!-- Generated by graphviz version 2.38.0 (20140413.2041)
 -->
<!-- Title: G Pages: 1 -->
<svg width="468pt" height="314pt"
 viewBox="0.00 0.00 468.00 314.00" xmlns="http://www.w3.org/2000/svg" xmlns:xlink="http://www.w3.org/1999/xlink">
<g id="graph0" class="graph" transform="scale(1 1) rotate(0) translate(4 310)">
<title>G</title>
<polygon fill="white" stroke="none" points="-4,4 -4,-310 464,-310 464,4 -4,4"/>
<g id="clust1" class="cluster"><title>clusterA</title>
<polygon fill="none" stroke="#222222" points="8,-8 8,-298 452,-298 452,-8 8,-8"/>
<text text-anchor="middle" x="230" y="-282.8" font-family="Playfair Display" font-size="14.00" fill="#222222">honeycomb.cafe</text>
</g>
<!-- Honeycomb -->
<g id="node1" class="node"><title>Honeycomb</title>
<ellipse fill="none" stroke="#222222" cx="190" cy="-178" rx="57.0907" ry="18"/>
<text text-anchor="middle" x="190" y="-173.8" font-family="Playfair Display" font-size="14.00" fill="#222222">Honeycomb</text>
</g>
<!-- memcached -->
<g id="node2" class="node"><title>memcached</title>
<ellipse fill="none" stroke="#222222" cx="204" cy="-106" rx="58.0513" ry="18"/>
<text text-anchor="middle" x="204" y="-101.8" font-family="Playfair Display" font-size="14.00" fill="#222222">memcached</text>
</g>
<!-- Honeycomb&#45;&#45;memcached -->
<g id="edge1" class="edge"><title>Honeycomb&#45;&#45;memcached</title>
<path fill="none" stroke="#222222" d="M193.461,-159.697C195.631,-148.846 198.417,-134.917 200.579,-124.104"/>
</g>
<!-- Postgres -->
<g id="node3" class="node"><title>Postgres</title>
<ellipse fill="none" stroke="#222222" cx="325" cy="-106" rx="45.0114" ry="18"/>
<text text-anchor="middle" x="325" y="-101.8" font-family="Playfair Display" font-size="14.00" fill="#222222">Postgres</text>
</g>
<!-- Honeycomb&#45;&#45;Postgres -->
<g id="edge2" class="edge"><title>Honeycomb&#45;&#45;Postgres</title>
<path fill="none" stroke="#222222" d="M218.3,-162.326C241.959,-150.058 275.451,-132.692 298.571,-120.704"/>
</g>
<!-- ElasticSearch -->
<g id="node4" class="node"><title>ElasticSearch</title>
<ellipse fill="none" stroke="#222222" cx="103" cy="-34" rx="64.3479" ry="18"/>
<text text-anchor="middle" x="103" y="-29.8" font-family="Playfair Display" font-size="14.00" fill="#222222">ElasticSearch</text>
</g>
<!-- Honeycomb&#45;&#45;ElasticSearch -->
<g id="edge3" class="edge"><title>Honeycomb&#45;&#45;ElasticSearch</title>
<path fill="none" stroke="#222222" d="M170.295,-160.982C159.31,-151.226 146.06,-137.976 137,-124 122.154,-101.099 112.321,-70.7465 107.207,-52.0614"/>
</g>
<!-- Logstash -->
<g id="node5" class="node"><title>Logstash</title>
<ellipse fill="none" stroke="#222222" cx="62" cy="-106" rx="45.9977" ry="18"/>
<text text-anchor="middle" x="62" y="-101.8" font-family="Playfair Display" font-size="14.00" fill="#222222">Logstash</text>
</g>
<!-- Honeycomb&#45;&#45;Logstash -->
<g id="edge4" class="edge"><title>Honeycomb&#45;&#45;Logstash</title>
<path fill="none" stroke="#222222" d="M162.541,-161.983C140.356,-149.851 109.363,-132.902 87.6707,-121.039"/>
</g>
<!-- nrpe -->
<g id="node6" class="node"><title>nrpe</title>
<ellipse fill="none" stroke="#222222" cx="416" cy="-106" rx="27.6147" ry="18"/>
<text text-anchor="middle" x="416" y="-101.8" font-family="Playfair Display" font-size="14.00" fill="#222222">nrpe</text>
</g>
<!-- Honeycomb&#45;&#45;nrpe -->
<g id="edge6" class="edge"><title>Honeycomb&#45;&#45;nrpe</title>
<path fill="none" stroke="#222222" d="M234.542,-166.615C273.243,-157.096 330.538,-141.803 379,-124 384.043,-122.147 389.353,-119.897 394.326,-117.647"/>
</g>
<!-- Logstash&#45;&#45;ElasticSearch -->
<g id="edge5" class="edge"><title>Logstash&#45;&#45;ElasticSearch</title>
<path fill="none" stroke="#222222" d="M71.925,-88.055C78.3712,-77.0492 86.7385,-62.7636 93.1664,-51.789"/>
</g>
<!-- nagios -->
<g id="node7" class="node"><title>nagios</title>
<ellipse fill="none" stroke="#222222" cx="408" cy="-178" rx="36.3339" ry="18"/>
<text text-anchor="middle" x="408" y="-173.8" font-family="Playfair Display" font-size="14.00" fill="#222222">nagios</text>
</g>
<!-- nagios&#45;&#45;nrpe -->
<g id="edge7" class="edge"><title>nagios&#45;&#45;nrpe</title>
<path fill="none" stroke="#222222" d="M409.978,-159.697C411.218,-148.846 412.81,-134.917 414.045,-124.104"/>
</g>
<!-- Kibana -->
<g id="node8" class="node"><title>Kibana</title>
<ellipse fill="none" stroke="#222222" cx="69" cy="-178" rx="37.7872" ry="18"/>
<text text-anchor="middle" x="69" y="-173.8" font-family="Playfair Display" font-size="14.00" fill="#222222">Kibana</text>
</g>
<!-- Kibana&#45;&#45;Logstash -->
<g id="edge8" class="edge"><title>Kibana&#45;&#45;Logstash</title>
<path fill="none" stroke="#222222" d="M67.2697,-159.697C66.1846,-148.846 64.7917,-134.917 63.7104,-124.104"/>
</g>
<!-- Apache -->
<g id="node9" class="node"><title>Apache</title>
<ellipse fill="none" stroke="#222222" cx="140" cy="-250" rx="40.2009" ry="18"/>
<text text-anchor="middle" x="140" y="-245.8" font-family="Playfair Display" font-size="14.00" fill="#222222">Apache</text>
</g>
<!-- Apache&#45;&#45;Honeycomb -->
<g id="edge9" class="edge"><title>Apache&#45;&#45;Honeycomb</title>
<path fill="none" stroke="#222222" d="M151.597,-232.765C159.559,-221.618 170.096,-206.865 178.119,-195.633"/>
</g>
<!-- Apache&#45;&#45;Kibana -->
<g id="edge10" class="edge"><title>Apache&#45;&#45;Kibana</title>
<path fill="none" stroke="#222222" d="M123.889,-233.116C112.269,-221.66 96.6522,-206.263 85.0472,-194.821"/>
</g>
</g>
</svg>
