<svg font-size="10px" font-family="sans-serif" fill="none" stroke="none" stroke-width="1.5" width="550" height="220"><g><g></g></g><g><g><g><g><a title="Male"><path cursor="crosshair" d="M0,38.20000000000002L200,77.76661083193746L400,77.22815428197866L400,200L200,200L0,200Z" fill="rgb(68,68,136)" fill-opacity="0.4" stroke="rgb(255,255,255)" stroke-width="1"></path></a></g><g><text pointer-events="none" dy=".35em" transform="translate(400,138.61407714098934)" fill="rgb(0,0,0)">Male</text></g><g><a title="Predominantly male"><path cursor="crosshair" d="M0,38.20000000000002L200,49.223897264098255L400,48.28938766615822L400,77.22815428197865L200,77.76661083193746L0,38.20000000000002Z" fill="rgb(102,102,136)" fill-opacity="0.4" stroke="rgb(255,255,255)" stroke-width="1"></path></a></g><g><text pointer-events="none" dy=".35em" transform="translate(400,62.75877097406844)" fill="rgb(0,0,0)">Predominantly male</text></g><g><a title="Equal parts male and female"><path cursor="crosshair" d="M0,38.20000000000002L200,37.90061418202123L400,37.6988450642842L400,48.28938766615825L200,49.223897264098284L0,38.20000000000002Z" fill="rgb(136,102,136)" fill-opacity="0.3" stroke="rgb(255,255,255)" stroke-width="1"></path></a></g><g><text pointer-events="none" dy=".35em" transform="translate(400,42.994116365221224)" fill="rgb(0,0,0)">Equal parts male and female</text></g><g><a title="Predominantly female"><path cursor="crosshair" d="M0,38.20000000000002L200,24.969290898939164L400,25.408585748529134L400,37.6988450642842L200,37.90061418202124L0,38.20000000000002Z" fill="rgb(136,102,102)" fill-opacity="0.4" stroke="rgb(255,255,255)" stroke-width="1"></path></a></g><g><text pointer-events="none" dy=".35em" transform="translate(400,31.553715406406667)" fill="rgb(0,0,0)">Predominantly female</text></g><g><a title="Female"><path cursor="crosshair" d="M0,2.842170943040401e-14L200,1.4740368509212942L400,1.8740466332534709L400,25.408585748529127L200,24.96929089893916L0,38.20000000000003Z" fill="rgb(136,34,34)" fill-opacity="0.4" stroke="rgb(255,255,255)" stroke-width="1"></path></a></g><g><text pointer-events="none" dy=".35em" transform="translate(400,13.641316190891299)" fill="rgb(0,0,0)">Female</text></g><g><a title="Other"><path cursor="crosshair" d="M0,0L200,2.842170943040401e-14L400,2.842170943040401e-14L400,1.8740466332534602L200,1.4740368509213015L0,0Z" stroke="rgb(255,255,255)" stroke-width="1"></path></a></g><g></g></g></g></g><g><text pointer-events="none" x="3" y="-3" transform="translate(0,220)" fill="rgb(0,0,0)">2008</text></g><g><text pointer-events="none" y="-3" transform="translate(200,220)" fill="rgb(0,0,0)" text-anchor="middle">2009</text></g><g><text pointer-events="none" x="-3" y="-3" transform="translate(400,220)" fill="rgb(0,0,0)" text-anchor="end">2010</text></g></svg>
