<svg font-size="10px" font-family="sans-serif" fill="none" stroke="none" stroke-width="1.5" width="400" height="400"><g><a title="Alligatorid - 0.1%"><path cursor="crosshair" transform="translate(200,200)" d="M1.2246063538223773e-14,-200A200,200 0 0,1 1.847969382578168,-199.99146234067356L0.6467892839023588,-69.99701181923575A70,70 0 0,0 4.2861222383783204e-15,-70Z" fill="rgb(217,142,140)" fill-rule="evenodd" stroke="rgb(255,255,255)" stroke-width="1"></path></a><a title="Ailurid - 0.1%"><path cursor="crosshair" transform="translate(200,200)" d="M1.847969382578168,-199.99146234067356A200,200 0 0,1 3.695780991825983,-199.96585009161055L1.2935233471390941,-69.98804753206369A70,70 0 0,0 0.6467892839023588,-69.99701181923575Z" fill="rgb(217,142,140)" fill-rule="evenodd" stroke="rgb(255,255,255)" stroke-width="1"></path></a><a title="A.I. - 0.4%"><path cursor="crosshair" transform="translate(200,200)" d="M3.695780991825983,-199.96585009161055A200,200 0 0,1 9.236691729147903,-199.78659496047447L3.2328421052017666,-69.92530823616607A70,70 0 0,0 1.2935233471390941,-69.98804753206369Z" fill="rgb(217,144,140)" fill-rule="evenodd" stroke="rgb(255,255,255)" stroke-width="1"></path></a><a title="Avian - 2.6%"><path cursor="crosshair" transform="translate(200,200)" d="M9.236691729147903,-199.78659496047447A200,200 0 0,1 42.18467749169397,-195.50051914233316L14.76463712209289,-68.4251816998166A70,70 0 0,0 3.2328421052017666,-69.92530823616607Z" fill="rgb(217,163,140)" fill-rule="evenodd" stroke="rgb(255,255,255)" stroke-width="1"></path></a><a title="Bovid - 1.5%"><path cursor="crosshair" transform="translate(200,200)" d="M42.18467749169397,-195.50051914233316A200,200 0 0,1 60.04323726995051,-190.77423740679563L21.015133044482678,-66.77098309237847A70,70 0 0,0 14.76463712209289,-68.4251816998166Z" fill="rgb(217,153,140)" fill-rule="evenodd" stroke="rgb(255,255,255)" stroke-width="1"></path></a><a title="Camelid - 0.1%"><path cursor="crosshair" transform="translate(200,200)" d="M60.04323726995051,-190.77423740679563A200,200 0 0,1 61.803398874989455,-190.21130325903073L21.63118960624631,-66.57395614066075A70,70 0 0,0 21.015133044482678,-66.77098309237847Z" fill="rgb(217,142,140)" fill-rule="evenodd" stroke="rgb(255,255,255)" stroke-width="1"></path></a><a title="Canid - 32.9%"><path cursor="crosshair" transform="translate(200,200)" d="M61.803398874989455,-190.21130325903073A200,200 0 0,1 137.44733719385258,145.28671480324476L48.1065680178484,50.850350181135674A70,70 0 0,0 21.63118960624631,-66.57395614066075Z" fill="rgb(140,161,217)" fill-rule="evenodd" stroke="rgb(255,255,255)" stroke-width="1"></path></a><a title="Cercopithecid - 0.1%"><path cursor="crosshair" transform="translate(200,200)" d="M137.44733719385258,145.28671480324476A200,200 0 0,1 136.09904279789237,146.55050511512223L47.634664979262325,51.292676790292774A70,70 0 0,0 48.1065680178484,50.850350181135674Z" fill="rgb(217,142,140)" fill-rule="evenodd" stroke="rgb(255,255,255)" stroke-width="1"></path></a><a title="Cervid - 0.4%"><path cursor="crosshair" transform="translate(200,200)" d="M136.09904279789237,146.55050511512223A200,200 0 0,1 131.98490697574456,150.2663779113746L46.1947174415106,52.59323226898111A70,70 0 0,0 47.634664979262325,51.292676790292774Z" fill="rgb(217,144,140)" fill-rule="evenodd" stroke="rgb(255,255,255)" stroke-width="1"></path></a><a title="Chondrichthyesid - 0.1%"><path cursor="crosshair" transform="translate(200,200)" d="M131.98490697574456,150.2663779113746A200,200 0 0,1 130.59083443682894,151.4794836309285L45.70679205289012,53.01781927082498A70,70 0 0,0 46.1947174415106,52.59323226898111Z" fill="rgb(217,142,140)" fill-rule="evenodd" stroke="rgb(255,255,255)" stroke-width="1"></path></a><a title="Corytophanid - 0.1%"><path cursor="crosshair" transform="translate(200,200)" d="M130.59083443682894,151.4794836309285A200,200 0 0,1 129.1856124973575,152.67965654822052L45.21496437407513,53.43787979187719A70,70 0 0,0 45.70679205289012,53.01781927082498Z" fill="rgb(217,142,140)" fill-rule="evenodd" stroke="rgb(255,255,255)" stroke-width="1"></path></a><a title="Crocodylid - 0.1%"><path cursor="crosshair" transform="translate(200,200)" d="M129.1856124973575,152.67965654822052A200,200 0 0,1 127.76936113039233,153.86679419657574L44.719276395637316,53.85337796880151A70,70 0 0,0 45.21496437407513,53.43787979187719Z" fill="rgb(217,142,140)" fill-rule="evenodd" stroke="rgb(255,255,255)" stroke-width="1"></path></a><a title="Decapod - 0.1%"><path cursor="crosshair" transform="translate(200,200)" d="M127.76936113039233,153.86679419657574A200,200 0 0,1 126.34220125065025,155.0407952222259L44.21977043772759,54.26427832777907A70,70 0 0,0 44.719276395637316,53.85337796880151Z" fill="rgb(217,142,140)" fill-rule="evenodd" stroke="rgb(255,255,255)" stroke-width="1"></path></a><a title="Delphinid - 0.4%"><path cursor="crosshair" transform="translate(200,200)" d="M126.34220125065025,155.0407952222259A200,200 0 0,1 121.99649358941143,158.48298189991473L42.698772756294,55.46904366497015A70,70 0 0,0 44.21977043772759,54.26427832777907Z" fill="rgb(217,144,140)" fill-rule="evenodd" stroke="rgb(255,255,255)" stroke-width="1"></path></a><a title="Didelphid - 0.1%"><path cursor="crosshair" transform="translate(200,200)" d="M121.99649358941143,158.48298189991473A200,200 0 0,1 120.52692727585135,159.60344545604787L42.18442454654797,55.86120590961675A70,70 0 0,0 42.698772756294,55.46904366497015Z" fill="rgb(217,142,140)" fill-rule="evenodd" stroke="rgb(255,255,255)" stroke-width="1"></path></a><a title="Dinosaur - 0.1%"><path cursor="crosshair" transform="translate(200,200)" d="M120.52692727585135,159.60344545604787A200,200 0 0,1 119.04707078384385,160.7102826137347L41.666474774345346,56.24859891480715A70,70 0 0,0 42.18442454654797,55.86120590961675Z" fill="rgb(217,142,140)" fill-rule="evenodd" stroke="rgb(255,255,255)" stroke-width="1"></path></a><a title="Dragon - 6.2%"><path cursor="crosshair" transform="translate(200,200)" d="M119.04707078384385,160.7102826137347A200,200 0 0,1 49.3799052077467,193.80821696118548L17.282966822711348,67.83287593641492A70,70 0 0,0 41.666474774345346,56.24859891480715Z" fill="rgb(217,194,140)" fill-rule="evenodd" stroke="rgb(255,255,255)" stroke-width="1"></path></a><a title="Dromaeosaurid - 0.9%"><path cursor="crosshair" transform="translate(200,200)" d="M49.3799052077467,193.80821696118548A200,200 0 0,1 38.564838964643435,196.24666416433968L13.497693637625202,68.68633245751889A70,70 0 0,0 17.282966822711348,67.83287593641492Z" fill="rgb(217,148,140)" fill-rule="evenodd" stroke="rgb(255,255,255)" stroke-width="1"></path></a><a title="Equine - 1.0%"><path cursor="crosshair" transform="translate(200,200)" d="M38.564838964643435,196.24666416433968A200,200 0 0,1 25.799843306040728,198.32893910214855L9.029945157114254,69.415128685752A70,70 0 0,0 13.497693637625202,68.68633245751889Z" fill="rgb(217,149,140)" fill-rule="evenodd" stroke="rgb(255,255,255)" stroke-width="1"></path></a><a title="Exotic Hybrid/Chimera - 8.1%"><path cursor="crosshair" transform="translate(200,200)" d="M25.799843306040728,198.32893910214855A200,200 0 0,1 -73.96842920919377,185.81892121181977L-25.888950223217822,65.03662242413692A70,70 0 0,0 9.029945157114254,69.415128685752Z" fill="rgb(217,210,140)" fill-rule="evenodd" stroke="rgb(255,255,255)" stroke-width="1"></path></a><a title="Felid - 12.5%"><path cursor="crosshair" transform="translate(200,200)" d="M-73.96842920919377,185.81892121181977A200,200 0 0,1 -183.69739714918458,79.09024137410856L-64.2940890022146,27.681584480937996A70,70 0 0,0 -25.888950223217822,65.03662242413692Z" fill="rgb(185,217,140)" fill-rule="evenodd" stroke="rgb(255,255,255)" stroke-width="1"></path></a><a title="Folivora - 0.3%"><path cursor="crosshair" transform="translate(200,200)" d="M-183.69739714918458,79.09024137410856A200,200 0 0,1 -185.12753195631123,75.6822100084621L-64.79463618470893,26.48877350296174A70,70 0 0,0 -64.2940890022146,27.681584480937996Z" fill="rgb(217,143,140)" fill-rule="evenodd" stroke="rgb(255,255,255)" stroke-width="1"></path></a><a title="Gekkonid - 0.1%"><path cursor="crosshair" transform="translate(200,200)" d="M-185.12753195631123,75.6822100084621A200,200 0 0,1 -185.81892121181974,73.96842920919389L-65.03662242413691,25.88895022321786A70,70 0 0,0 -64.79463618470893,26.48877350296174Z" fill="rgb(217,142,140)" fill-rule="evenodd" stroke="rgb(255,255,255)" stroke-width="1"></path></a><a title="Gryphon/Griffin - 1.0%"><path cursor="crosshair" transform="translate(200,200)" d="M-185.81892121181974,73.96842920919389A200,200 0 0,1 -190.21130325903067,61.80339887498959L-66.57395614066074,21.631189606246355A70,70 0 0,0 -65.03662242413691,25.88895022321786Z" fill="rgb(217,149,140)" fill-rule="evenodd" stroke="rgb(255,255,255)" stroke-width="1"></path></a><a title="Herpestid - 0.6%"><path cursor="crosshair" transform="translate(200,200)" d="M-190.21130325903067,61.80339887498959A200,200 0 0,1 -192.36512863456377,54.7325980144167L-67.32779502209732,19.156409305045845A70,70 0 0,0 -66.57395614066074,21.631189606246355Z" fill="rgb(217,145,140)" fill-rule="evenodd" stroke="rgb(255,255,255)" stroke-width="1"></path></a><a title="Hominid - 1.8%"><path cursor="crosshair" transform="translate(200,200)" d="M-192.36512863456377,54.7325980144167A200,200 0 0,1 -197.24014947068048,33.11077523682609L-69.03405231473818,11.588771332889133A70,70 0 0,0 -67.32779502209732,19.156409305045845Z" fill="rgb(217,156,140)" fill-rule="evenodd" stroke="rgb(255,255,255)" stroke-width="1"></path></a><a title="Hyaenid - 1.2%"><path cursor="crosshair" transform="translate(200,200)" d="M-197.24014947068048,33.11077523682609A200,200 0 0,1 -199.1468352590069,18.453671892660548L-69.70139234065242,6.458785162431192A70,70 0 0,0 -69.03405231473818,11.588771332889133Z" fill="rgb(217,150,140)" fill-rule="evenodd" stroke="rgb(255,255,255)" stroke-width="1"></path></a><a title="Insecta - 0.1%"><path cursor="crosshair" transform="translate(200,200)" d="M-199.1468352590069,18.453671892660548A200,200 0 0,1 -199.30884312309888,16.612797865860937L-69.7580950930846,5.814479253051328A70,70 0 0,0 -69.70139234065242,6.458785162431192Z" fill="rgb(217,142,140)" fill-rule="evenodd" stroke="rgb(255,255,255)" stroke-width="1"></path></a><a title="Leporid - 2.1%"><path cursor="crosshair" transform="translate(200,200)" d="M-199.30884312309888,16.612797865860937A200,200 0 0,1 -199.7865949604745,-9.236691729147779L-69.92530823616607,-3.2328421052017227A70,70 0 0,0 -69.7580950930846,5.814479253051328Z" fill="rgb(217,158,140)" fill-rule="evenodd" stroke="rgb(255,255,255)" stroke-width="1"></path></a><a title="Macropod - 0.7%"><path cursor="crosshair" transform="translate(200,200)" d="M-199.7865949604745,-9.236691729147779A200,200 0 0,1 -199.1468352590069,-18.453671892660235L-69.70139234065242,-6.458785162431082A70,70 0 0,0 -69.92530823616607,-3.2328421052017227Z" fill="rgb(217,147,140)" fill-rule="evenodd" stroke="rgb(255,255,255)" stroke-width="1"></path></a><a title="Multiple Fursonas - 3.2%"><path cursor="crosshair" transform="translate(200,200)" d="M-199.1468352590069,-18.453671892660235A200,200 0 0,1 -191.3208839000882,-58.27794937786474L-66.96230936503088,-20.39728228225266A70,70 0 0,0 -69.70139234065242,-6.458785162431082Z" fill="rgb(217,168,140)" fill-rule="evenodd" stroke="rgb(255,255,255)" stroke-width="1"></path></a><a title="Mustelid - 5.6%"><path cursor="crosshair" transform="translate(200,200)" d="M-191.3208839000882,-58.27794937786474A200,200 0 0,1 -159.60344545604804,-120.52692727585111L-55.861205909616814,-42.18442454654789A70,70 0 0,0 -66.96230936503088,-20.39728228225266Z" fill="rgb(217,189,140)" fill-rule="evenodd" stroke="rgb(255,255,255)" stroke-width="1"></path></a><a title="Mythical/Fictional/Unique - 3.5%"><path cursor="crosshair" transform="translate(200,200)" d="M-159.60344545604804,-120.52692727585111A200,200 0 0,1 -129.1856124973576,-152.6796565482205L-45.21496437407515,-53.43787979187717A70,70 0 0,0 -55.861205909616814,-42.18442454654789Z" fill="rgb(217,171,140)" fill-rule="evenodd" stroke="rgb(255,255,255)" stroke-width="1"></path></a><a title="Ornithorhynchid - 0.3%"><path cursor="crosshair" transform="translate(200,200)" d="M-129.1856124973576,-152.6796565482205A200,200 0 0,1 -126.34220125065032,-155.04079522222585L-44.21977043772761,-54.264278327779046A70,70 0 0,0 -45.21496437407515,-53.43787979187717Z" fill="rgb(217,143,140)" fill-rule="evenodd" stroke="rgb(255,255,255)" stroke-width="1"></path></a><a title="Phrynosomatid - 0.1%"><path cursor="crosshair" transform="translate(200,200)" d="M-126.34220125065032,-155.04079522222585A200,200 0 0,1 -124.90425470417989,-156.20155939296302L-43.71648914646296,-54.67054578753706A70,70 0 0,0 -44.21977043772761,-54.264278327779046Z" fill="rgb(217,142,140)" fill-rule="evenodd" stroke="rgb(255,255,255)" stroke-width="1"></path></a><a title="Pokemon - 1.0%"><path cursor="crosshair" transform="translate(200,200)" d="M-124.90425470417989,-156.20155939296302A200,200 0 0,1 -114.54702801610108,-163.9480965814442L-40.09145980563538,-57.38183380350547A70,70 0 0,0 -43.71648914646296,-54.67054578753706Z" fill="rgb(217,149,140)" fill-rule="evenodd" stroke="rgb(255,255,255)" stroke-width="1"></path></a><a title="Primate - 0.6%"><path cursor="crosshair" transform="translate(200,200)" d="M-114.54702801610108,-163.9480965814442A200,200 0 0,1 -108.41067129448992,-168.0688143275785L-37.94373495307147,-58.824085014652475A70,70 0 0,0 -40.09145980563538,-57.38183380350547Z" fill="rgb(217,145,140)" fill-rule="evenodd" stroke="rgb(255,255,255)" stroke-width="1"></path></a><a title="Procyonid - 2.4%"><path cursor="crosshair" transform="translate(200,200)" d="M-108.41067129448992,-168.0688143275785A200,200 0 0,1 -82.47126349478083,-182.2045298492176L-28.86494222317329,-63.77158544722616A70,70 0 0,0 -37.94373495307147,-58.824085014652475Z" fill="rgb(217,161,140)" fill-rule="evenodd" stroke="rgb(255,255,255)" stroke-width="1"></path></a><a title="Pteropodid - 0.4%"><path cursor="crosshair" transform="translate(200,200)" d="M-82.47126349478083,-182.2045298492176A200,200 0 0,1 -77.38952931846912,-184.42033714280487L-27.086335261464193,-64.5471179999817A70,70 0 0,0 -28.86494222317329,-63.77158544722616Z" fill="rgb(217,144,140)" fill-rule="evenodd" stroke="rgb(255,255,255)" stroke-width="1"></path></a><a title="Rodentia - 1.9%"><path cursor="crosshair" transform="translate(200,200)" d="M-77.38952931846912,-184.42033714280487A200,200 0 0,1 -54.732598014416624,-192.3651286345638L-19.156409305045816,-67.32779502209733A70,70 0 0,0 -27.086335261464193,-64.5471179999817Z" fill="rgb(217,157,140)" fill-rule="evenodd" stroke="rgb(255,255,255)" stroke-width="1"></path></a><a title="Serpentes - 0.3%"><path cursor="crosshair" transform="translate(200,200)" d="M-54.732598014416624,-192.3651286345638A200,200 0 0,1 -51.16855551888718,-193.3436808538375L-17.908994431610513,-67.67028829884312A70,70 0 0,0 -19.156409305045816,-67.32779502209733Z" fill="rgb(217,143,140)" fill-rule="evenodd" stroke="rgb(255,255,255)" stroke-width="1"></path></a><a title="Sciurid - 0.7%"><path cursor="crosshair" transform="translate(200,200)" d="M-51.16855551888718,-193.3436808538375A200,200 0 0,1 -42.18467749169399,-195.50051914233313L-14.764637122092896,-68.42518169981659A70,70 0 0,0 -17.908994431610513,-67.67028829884312Z" fill="rgb(217,147,140)" fill-rule="evenodd" stroke="rgb(255,255,255)" stroke-width="1"></path></a><a title="Spheniscid - 0.3%"><path cursor="crosshair" transform="translate(200,200)" d="M-42.18467749169399,-195.50051914233313A200,200 0 0,1 -38.564838964643364,-196.24666416433968L-13.497693637625177,-68.68633245751889A70,70 0 0,0 -14.764637122092896,-68.42518169981659Z" fill="rgb(217,143,140)" fill-rule="evenodd" stroke="rgb(255,255,255)" stroke-width="1"></path></a><a title="Suid - 0.1%"><path cursor="crosshair" transform="translate(200,200)" d="M-38.564838964643364,-196.24666416433968A200,200 0 0,1 -36.74990356331399,-196.5946199367804L-12.8624662471599,-68.80811697787313A70,70 0 0,0 -13.497693637625177,-68.68633245751889Z" fill="rgb(217,142,140)" fill-rule="evenodd" stroke="rgb(255,255,255)" stroke-width="1"></path></a><a title="Thylacinid - 0.3%"><path cursor="crosshair" transform="translate(200,200)" d="M-36.74990356331399,-196.5946199367804A200,200 0 0,1 -33.11077523682594,-197.2401494706805L-11.588771332889078,-69.03405231473818A70,70 0 0,0 -12.8624662471599,-68.80811697787313Z" fill="rgb(217,143,140)" fill-rule="evenodd" stroke="rgb(255,255,255)" stroke-width="1"></path></a><a title="Ursid - 1.9%"><path cursor="crosshair" transform="translate(200,200)" d="M-33.11077523682594,-197.2401494706805A200,200 0 0,1 -9.236691729147841,-199.78659496047447L-3.232842105201744,-69.92530823616607A70,70 0 0,0 -11.588771332889078,-69.03405231473818Z" fill="rgb(217,157,140)" fill-rule="evenodd" stroke="rgb(255,255,255)" stroke-width="1"></path></a><a title="Varanid - 0.3%"><path cursor="crosshair" transform="translate(200,200)" d="M-9.236691729147841,-199.78659496047447A200,200 0 0,1 -5.543277067883199,-199.9231654394975L-1.94014697375912,-69.97310790382411A70,70 0 0,0 -3.232842105201744,-69.92530823616607Z" fill="rgb(217,143,140)" fill-rule="evenodd" stroke="rgb(255,255,255)" stroke-width="1"></path></a><a title="Vespertilionid - 0.1%"><path cursor="crosshair" transform="translate(200,200)" d="M-5.543277067883199,-199.9231654394975A200,200 0 0,1 -3.6957809918258295,-199.96585009161055L-1.2935233471390404,-69.98804753206369A70,70 0 0,0 -1.94014697375912,-69.97310790382411Z" fill="rgb(217,142,140)" fill-rule="evenodd" stroke="rgb(255,255,255)" stroke-width="1"></path></a><a title="Vombatid - 0.3%"><path cursor="crosshair" transform="translate(200,200)" d="M-3.6957809918258295,-199.96585009161055A200,200 0 0,1 1.4089749332535373e-13,-200L4.9314122663873805e-14,-70A70,70 0 0,0 -1.2935233471390404,-69.98804753206369Z" fill="rgb(217,143,140)" fill-rule="evenodd" stroke="rgb(255,255,255)" stroke-width="1"></path></a></g><g><text pointer-events="none" y="-3" transform="translate(228.47465730689342,68.03714957892512) rotate(-77.82352941176471)" fill="rgb(0,0,0)" text-anchor="middle" style="font-family: sans-serif; font-size: 8pt; font-style: normal; font-variant: normal; font-weight: normal; line-height: normal; ">Avian</text><text pointer-events="none" y="-3" transform="translate(240.5291851572166,71.22738975041295) rotate(-72.5294117647059)" fill="rgb(0,0,0)" text-anchor="middle" style="font-family: sans-serif; font-size: 8pt; font-style: normal; font-variant: normal; font-weight: normal; line-height: normal; ">Bovid</text><text pointer-events="none" y="-3" transform="translate(292.7769526058505,298.06853249219023) rotate(46.58823529411763)" fill="rgb(0,0,0)" text-anchor="middle" style="font-family: sans-serif; font-size: 8pt; font-style: normal; font-variant: normal; font-weight: normal; line-height: normal; ">Canid</text><text pointer-events="none" y="-3" transform="translate(233.33143601522903,330.8205464488002) rotate(75.70588235294116)" fill="rgb(0,0,0)" text-anchor="middle" style="font-family: sans-serif; font-size: 8pt; font-style: normal; font-variant: normal; font-weight: normal; line-height: normal; ">Dragon</text><text pointer-events="none" y="3" dy=".71em" transform="translate(150.07131028379422,325.42777181797834) rotate(291.7058823529412)" fill="rgb(0,0,0)" text-anchor="middle" style="font-family: sans-serif; font-size: 8pt; font-style: normal; font-variant: normal; font-weight: normal; line-height: normal; ">Exotic Hybrid/Chimera</text><text pointer-events="none" y="3" dy=".71em" transform="translate(76.0042569243004,253.3859129275233) rotate(336.70588235294116)" fill="rgb(0,0,0)" text-anchor="middle" style="font-family: sans-serif; font-size: 8pt; font-style: normal; font-variant: normal; font-weight: normal; line-height: normal; ">Felid</text><text pointer-events="none" y="3" dy=".71em" transform="translate(66.86289910729067,222.3497732848576) rotate(350.4705882352941)" fill="rgb(0,0,0)" text-anchor="middle" style="font-family: sans-serif; font-size: 8pt; font-style: normal; font-variant: normal; font-weight: normal; line-height: normal; ">Hominid</text><text pointer-events="none" y="3" dy=".71em" transform="translate(65.1440484016797,193.76523308282526) rotate(362.6470588235294)" fill="rgb(0,0,0)" text-anchor="middle" style="font-family: sans-serif; font-size: 8pt; font-style: normal; font-variant: normal; font-weight: normal; line-height: normal; ">Leporid</text><text pointer-events="none" y="3" dy=".71em" transform="translate(70.85840336744045,160.6623841699413) rotate(376.9411764705882)" fill="rgb(0,0,0)" text-anchor="middle" style="font-family: sans-serif; font-size: 8pt; font-style: normal; font-variant: normal; font-weight: normal; line-height: normal; ">Multiple Fursonas</text><text pointer-events="none" y="3" dy=".71em" transform="translate(92.26767431716758,118.6443240888005) rotate(397.0588235294117)" fill="rgb(0,0,0)" text-anchor="middle" style="font-family: sans-serif; font-size: 8pt; font-style: normal; font-variant: normal; font-weight: normal; line-height: normal; ">Mustelid</text><text pointer-events="none" y="3" dy=".71em" transform="translate(112.79971156428363,96.94123182995116) rotate(409.76470588235287)" fill="rgb(0,0,0)" text-anchor="middle" style="font-family: sans-serif; font-size: 8pt; font-style: normal; font-variant: normal; font-weight: normal; line-height: normal; ">Mythical/Fictional/Unique</text><text pointer-events="none" y="3" dy=".71em" transform="translate(144.33189714102292,77.01194235177812) rotate(425.6470588235294)" fill="rgb(0,0,0)" text-anchor="middle" style="font-family: sans-serif; font-size: 8pt; font-style: normal; font-variant: normal; font-weight: normal; line-height: normal; ">Procyonid</text><text pointer-events="none" y="3" dy=".71em" transform="translate(163.05549634026877,70.15353817166942) rotate(434.11764705882354)" fill="rgb(0,0,0)" text-anchor="middle" style="font-family: sans-serif; font-size: 8pt; font-style: normal; font-variant: normal; font-weight: normal; line-height: normal; ">Rodentia</text><text pointer-events="none" y="3" dy=".71em" transform="translate(193.7652330828252,65.14404840167973) rotate(447.3529411764706)" fill="rgb(0,0,0)" text-anchor="middle" style="font-family: sans-serif; font-size: 8pt; font-style: normal; font-variant: normal; font-weight: normal; line-height: normal; ">Ursid</text></g></svg>
