<!-- Generated by graphviz version 2.38.0 (20140413.2041)
 -->
<!-- Title: G Pages: 1 -->
<svg width="616pt" height="242pt"
 viewBox="0.00 0.00 616.00 242.00" xmlns="http://www.w3.org/2000/svg" xmlns:xlink="http://www.w3.org/1999/xlink">
<g id="graph0" class="graph" transform="scale(1 1) rotate(0) translate(4 238)">
<title>G</title>
<polygon fill="white" stroke="none" points="-4,4 -4,-238 612,-238 612,4 -4,4"/>
<g id="clust1" class="cluster"><title>clusterA</title>
<polygon fill="none" stroke="#222222" points="8,-8 8,-226 600,-226 600,-8 8,-8"/>
<text text-anchor="middle" x="304" y="-210.8" font-family="Playfair Display" font-size="14.00" fill="#222222">alopex.openfurry.org</text>
</g>
<!-- Apache -->
<g id="node1" class="node"><title>Apache</title>
<ellipse fill="lightgrey" stroke="lightgrey" cx="264" cy="-178" rx="40.2009" ry="18"/>
<text text-anchor="middle" x="264" y="-173.8" font-family="Playfair Display" font-size="14.00" fill="#222222">Apache</text>
</g>
<!-- Charref -->
<g id="node6" class="node"><title>Charref</title>
<ellipse fill="none" stroke="#222222" cx="56" cy="-106" rx="39.6905" ry="18"/>
<text text-anchor="middle" x="56" y="-101.8" font-family="Playfair Display" font-size="14.00" fill="#222222">Charref</text>
</g>
<!-- Apache&#45;&#45;Charref -->
<g id="edge6" class="edge"><title>Apache&#45;&#45;Charref</title>
<path fill="none" stroke="#222222" d="M232.587,-166.654C200.486,-156.053 149.214,-139.038 105,-124 99.0327,-121.97 92.6651,-119.78 86.5623,-117.668"/>
</g>
<!-- Surveys -->
<g id="node7" class="node"><title>Surveys</title>
<ellipse fill="none" stroke="#222222" cx="156" cy="-106" rx="42.1043" ry="18"/>
<text text-anchor="middle" x="156" y="-101.8" font-family="Playfair Display" font-size="14.00" fill="#222222">Surveys</text>
</g>
<!-- Apache&#45;&#45;Surveys -->
<g id="edge7" class="edge"><title>Apache&#45;&#45;Surveys</title>
<path fill="none" stroke="#222222" d="M242.145,-162.834C223.53,-150.77 196.904,-133.512 178.194,-121.385"/>
</g>
<!-- Furry Poll -->
<g id="node8" class="node"><title>Furry Poll</title>
<ellipse fill="none" stroke="#222222" cx="264" cy="-106" rx="47.8841" ry="18"/>
<text text-anchor="middle" x="264" y="-101.8" font-family="Playfair Display" font-size="14.00" fill="#222222">Furry Poll</text>
</g>
<!-- Apache&#45;&#45;Furry Poll -->
<g id="edge8" class="edge"><title>Apache&#45;&#45;Furry Poll</title>
<path fill="none" stroke="#222222" d="M264,-159.697C264,-148.846 264,-134.917 264,-124.104"/>
</g>
<!-- polycul.es -->
<g id="node9" class="node"><title>polycul.es</title>
<ellipse fill="none" stroke="#222222" cx="379" cy="-106" rx="49.3636" ry="18"/>
<text text-anchor="middle" x="379" y="-101.8" font-family="Playfair Display" font-size="14.00" fill="#222222">polycul.es</text>
</g>
<!-- Apache&#45;&#45;polycul.es -->
<g id="edge9" class="edge"><title>Apache&#45;&#45;polycul.es</title>
<path fill="none" stroke="#222222" d="M286.996,-163.003C306.528,-151.113 334.491,-134.092 354.454,-121.941"/>
</g>
<!-- Honeycomb QA -->
<g id="node10" class="node"><title>Honeycomb QA</title>
<ellipse fill="none" stroke="#222222" cx="519" cy="-106" rx="72.5585" ry="18"/>
<text text-anchor="middle" x="519" y="-101.8" font-family="Playfair Display" font-size="14.00" fill="#222222">Honeycomb QA</text>
</g>
<!-- Apache&#45;&#45;Honeycomb QA -->
<g id="edge10" class="edge"><title>Apache&#45;&#45;Honeycomb QA</title>
<path fill="none" stroke="#222222" d="M297.337,-167.849C342.022,-155.582 421.573,-133.745 472.234,-119.838"/>
</g>
<!-- Postgres -->
<g id="node2" class="node"><title>Postgres</title>
<ellipse fill="lightgrey" stroke="lightgrey" cx="107" cy="-34" rx="45.0114" ry="18"/>
<text text-anchor="middle" x="107" y="-29.8" font-family="Playfair Display" font-size="14.00" fill="#222222">Postgres</text>
</g>
<!-- MongoDB -->
<g id="node3" class="node"><title>MongoDB</title>
<ellipse fill="lightgrey" stroke="lightgrey" cx="264" cy="-34" rx="49.3636" ry="18"/>
<text text-anchor="middle" x="264" y="-29.8" font-family="Playfair Display" font-size="14.00" fill="#222222">MongoDB</text>
</g>
<!-- Sqlite1 -->
<g id="node4" class="node"><title>Sqlite1</title>
<ellipse fill="lightgrey" stroke="lightgrey" cx="379" cy="-34" rx="37.2941" ry="18"/>
<text text-anchor="middle" x="379" y="-29.8" font-family="Playfair Display" font-size="14.00" fill="#222222">Sqlite3</text>
</g>
<!-- Sqlite2 -->
<g id="node5" class="node"><title>Sqlite2</title>
<ellipse fill="lightgrey" stroke="lightgrey" cx="519" cy="-34" rx="37.2941" ry="18"/>
<text text-anchor="middle" x="519" y="-29.8" font-family="Playfair Display" font-size="14.00" fill="#222222">Sqlite3</text>
</g>
<!-- Charref&#45;&#45;Postgres -->
<g id="edge1" class="edge"><title>Charref&#45;&#45;Postgres</title>
<path fill="none" stroke="#222222" d="M67.8286,-88.7646C75.9501,-77.6175 86.6983,-62.865 94.8814,-51.6334"/>
</g>
<!-- Surveys&#45;&#45;Postgres -->
<g id="edge2" class="edge"><title>Surveys&#45;&#45;Postgres</title>
<path fill="none" stroke="#222222" d="M144.388,-88.411C136.577,-77.2524 126.322,-62.6036 118.529,-51.4699"/>
</g>
<!-- Furry Poll&#45;&#45;MongoDB -->
<g id="edge3" class="edge"><title>Furry Poll&#45;&#45;MongoDB</title>
<path fill="none" stroke="#222222" d="M264,-87.6966C264,-76.8463 264,-62.9167 264,-52.1043"/>
</g>
<!-- polycul.es&#45;&#45;Sqlite1 -->
<g id="edge4" class="edge"><title>polycul.es&#45;&#45;Sqlite1</title>
<path fill="none" stroke="#222222" d="M379,-87.6966C379,-76.8463 379,-62.9167 379,-52.1043"/>
</g>
<!-- Honeycomb QA&#45;&#45;Sqlite2 -->
<g id="edge5" class="edge"><title>Honeycomb QA&#45;&#45;Sqlite2</title>
<path fill="none" stroke="#222222" d="M519,-87.6966C519,-76.8463 519,-62.9167 519,-52.1043"/>
</g>
</g>
</svg>
